<svg xmlns="http://www.w3.org/2000/svg" viewBox="0 0 1882 389" aria-label="PAT OF ALL TRADES logo"><path fill="#FFFFFF" fill-rule="evenodd" d="M0,0L0,239L69,239L69,171L71,169L181,169L196,167L221,159L237,150L249,139L259,124L264,111L267,97L267,72L264,57L256,39L251,32L241,22L227,13L205,5L171,0ZM70,53L163,53L176,56L184,60L192,68L196,79L196,91L193,101L182,112L168,117L145,118L69,116ZM335,0L233,243L308,241L312,230L316,224L372,199L429,171L450,215L461,242L542,242L429,0ZM384,58L391,72L407,114L422,148L421,152L343,168L340,167L382,60ZM478,1L478,55L577,56L578,242L649,242L650,55L748,55L748,0ZM242,299L235,311L232,321L231,332L235,351L237,356L247,369L258,377L271,383L294,388L319,388L342,383L360,373L372,360L377,350L380,339L380,323L377,312L372,302L361,290L344,280L315,274L298,274L283,276L271,279L260,284L251,290ZM269,313L277,305L296,298L316,298L327,301L336,306L343,313L347,320L347,342L343,349L336,356L323,362L299,364L283,360L276,356L269,349L264,339L264,323ZM1771,286L1761,298L1759,307L1761,321L1769,331L1780,337L1791,340L1839,345L1846,348L1849,351L1850,355L1844,362L1838,364L1808,365L1784,359L1768,351L1755,369L1755,372L1779,383L1807,388L1834,388L1851,385L1867,378L1872,374L1879,363L1881,354L1879,341L1872,331L1862,325L1844,320L1807,317L1798,315L1790,310L1790,305L1796,300L1807,297L1831,297L1847,301L1864,309L1876,289L1874,287L1853,278L1829,274L1810,274L1784,279ZM400,277L400,386L431,386L432,344L500,343L500,321L431,320L432,301L511,300L511,277ZM565,384L565,386L598,385L606,368L609,365L675,366L685,386L718,386L661,277L621,278ZM641,300L657,330L661,343L620,341ZM735,277L735,386L839,386L839,362L767,361L767,277ZM858,277L859,386L963,385L963,362L890,361L890,277ZM1025,277L1026,301L1067,300L1069,302L1069,386L1101,385L1102,301L1145,300L1144,277ZM1165,277L1165,386L1197,385L1197,350L1226,350L1257,386L1293,386L1293,384L1262,349L1264,347L1272,345L1281,339L1286,333L1291,320L1291,307L1286,294L1277,285L1267,280L1255,277ZM1196,327L1197,300L1248,300L1253,302L1258,307L1260,312L1257,322L1248,328L1198,329ZM1304,384L1304,386L1337,386L1348,365L1411,364L1414,366L1425,386L1457,386L1453,376L1400,277L1361,277ZM1379,302L1382,302L1401,340L1400,343L1359,341ZM1472,277L1472,386L1546,386L1565,383L1584,375L1600,359L1605,349L1607,341L1607,320L1603,308L1598,300L1586,289L1573,282L1552,277ZM1504,301L1548,301L1562,306L1572,316L1575,324L1575,339L1571,348L1562,356L1549,361L1505,362L1503,360ZM1626,278L1627,386L1739,385L1738,362L1658,361L1659,341L1729,341L1729,319L1658,318L1659,300L1734,301L1737,300L1737,277Z"/><path fill="#F2C94C" fill-rule="evenodd" d="M696,171L696,183L1881,182L1881,171ZM0,364L0,376L193,376L193,364Z"/></svg>