<svg xmlns="http://www.w3.org/2000/svg" viewBox="0 0 748 243" aria-label="PAT logo"><path fill="#111111" fill-rule="evenodd" d="M0,0L0,239L69,239L69,171L71,169L181,169L196,167L221,159L237,150L249,139L259,124L264,111L267,97L267,72L264,57L256,39L251,32L241,22L227,13L205,5L171,0ZM70,53L163,53L176,56L184,60L192,68L196,79L196,91L193,101L182,112L168,117L145,118L69,116ZM335,0L233,243L308,241L312,230L316,224L372,199L429,171L450,215L461,242L542,242L429,0ZM384,58L391,72L407,114L422,148L421,152L343,168L340,167L382,60ZM478,1L478,55L577,56L578,242L649,242L650,55L748,55L748,0Z"/></svg>