<?xml version="1.0" encoding="UTF-8"?>
<svg xmlns="http://www.w3.org/2000/svg" viewBox="0 0 534 617.74">
  <defs>
    <style>
      .st0 { fill: #0f172a; }
      .st1 { fill: #D4AF37; }
    </style>
  </defs>
  <path class="st1" d="M534,64.54v232l-10.73-2.27c-9.99-10.74-57.2-35.78-62.18-45.82-8.37-16.87.16-51.06-1.09-69.91h-50c-1.43,0,4.63,24.67-10.51,21.66l-88-57.32-228.94,153.2c-19.54,12.69-37.98,27.93-57.5,40.5-7.36,4.74-16.55,12.04-25.04,11.96V67.54c0-3.68,19.25-12.76,23.28-14.72C64.93,32.61,117.95,17.49,163.54,9.08c125.56-23.18,257.07-1.03,370.46,55.46Z"/>
  <path class="st0" d="M392,549.54c-23.85,17.49-49.59,32.66-75.96,46.04-12.8,6.5-30.27,16.41-43.55,20.53-4.38,1.36-5.07,2.22-10.02,1.13-10.72-2.36-40.9-19.56-52.51-25.66-78.5-41.26-157.35-96.22-193.92-180.1l296.66-214.54,220.92,132.98c.8,34.9-8.38,69.6-25.27,99.97-2.66,4.78-20.79,33.06-23.2,34.79-6.91,4.97-16.6-.04-24.06-.22-17.88-.41-45.33-2-62.18-.02-2.01.24-6.9.91-6.9,3.1v82ZM360,336.54h-92v92h92v-92ZM484,336.54h-92v92h92v-92ZM360,464.54h-92v94h92v-94Z"/>
</svg>

