<?xml version="1.0" encoding="UTF-8"?>
<svg id="Layer_1" xmlns="http://www.w3.org/2000/svg" version="1.1" viewBox="0 0 2318.62 617.74">
  <!-- Generator: Adobe Illustrator 29.8.3, SVG Export Plug-In . SVG Version: 2.1.1 Build 3)  -->
  <defs>
    <style>
      .st0 {
        fill: #0f172a;
      }

      .st1 {
        fill: #D4AF37;
      }
    </style>
  </defs>
  <path class="st1" d="M534,64.54v232l-10.73-2.27c-9.99-10.74-57.2-35.78-62.18-45.82-8.37-16.87.16-51.06-1.09-69.91h-50c-1.43,0,4.63,24.67-10.51,21.66l-88-57.32-228.94,153.2c-19.54,12.69-37.98,27.93-57.5,40.5-7.36,4.74-16.55,12.04-25.04,11.96V67.54c0-3.68,19.25-12.76,23.28-14.72C64.93,32.61,117.95,17.49,163.54,9.08c125.56-23.18,257.07-1.03,370.46,55.46Z"/>
  <path class="st0" d="M392,549.54c-23.85,17.49-49.59,32.66-75.96,46.04-12.8,6.5-30.27,16.41-43.55,20.53-4.38,1.36-5.07,2.22-10.02,1.13-10.72-2.36-40.9-19.56-52.51-25.66-78.5-41.26-157.35-96.22-193.92-180.1l296.66-214.54,220.92,132.98c.8,34.9-8.38,69.6-25.27,99.97-2.66,4.78-20.79,33.06-23.2,34.79-6.91,4.97-16.6-.04-24.06-.22-17.88-.41-45.33-2-62.18-.02-2.01.24-6.9.91-6.9,3.1v82ZM360,336.54h-92v92h92v-92ZM484,336.54h-92v92h92v-92ZM360,464.54h-92v94h92v-94Z"/>
  <path class="st1" d="M1077.52,133.06c66.98-9.67,105.48,42.18,91.17,105.17-19.53,85.95-144.75,77.98-152.66-12.72-3.43-39.33,18.74-86.28,61.49-92.45ZM1083.46,163c-36.27,7.49-38.22,97.56,1.72,103.35,65.63,9.52,60.35-116.17-1.72-103.35Z"/>
  <path class="st1" d="M1456,294.54h-39c-6.91-6.28-8.6-35.83-14.97-39.03-2.84-1.43-41.92-1.9-43.76-.71l-10.54,39.47c-13.05,1.75-26.68,4.55-39.67.17l50.86-160.04c8.39,1.69,44.13-2.65,48.11,2.11l48.97,158.03ZM1398,226.54l-16.02-60c-3.03.3-3.09,2.97-3.87,5.1-6.1,16.55-9.55,37.62-14.11,54.89h34Z"/>
  <path class="st1" d="M2082,126.54l1.13,166.14c-14.32,2.29-32.68,11.68-36.16-8.17-28.24,22.71-67.27,15.71-80.49-19.44-20.12-53.54,20.21-111.25,77.52-82.52v-53c0-.21,2.79-3,3-3h35ZM2015.42,204.97c-22.14,5.06-23.59,55.86,2.54,62.66,34.94,9.09,41.82-72.8-2.54-62.66Z"/>
  <path class="st1" d="M672,294.54h-38v-155c0-6.81,53.93-7.33,60.74-6.74,43.1,3.73,72.22,35.53,50.67,78.16-6.14,12.14-27.18,27.58-40.42,27.58h-30c-.21,0-3,2.79-3,3v53ZM672,210.54c19.89,1.54,43.03-2.23,42.18-27.02-.85-24.6-24.11-21.37-42.18-20.98v48Z"/>
  <path class="st1" d="M832.38,294.01c-1.87-2.68,2.11-5.83-3.37-5.49-4.04.25-8.74,5.09-13.42,6.61-24.39,7.93-49.81-.51-56.22-26.95-8.86-36.62,37.03-54.53,66.63-51.64-.51-25.75-37.07-10.89-51.98-5.98-.54-6.97-8.43-17.75-5.12-24.02,3.1-5.88,29.03-11.54,36.12-11.95,73.64-4.23,59.83,55.8,60.88,107.05.06,3.13,2.21,8.44,1.87,9.77-1.42,5.6-32.1,7.32-35.39,2.6ZM823.62,238.97c-12.67.94-30.69,6.04-27.59,22.5,2.33,12.39,21.53,11.9,28.88,2.98,5.25-6.37,9.95-26.32-1.29-25.48Z"/>
  <path class="st1" d="M1903.99,216.53c-1.71-24.39-37.54-12.83-51.96-5.99-3.46-13.67-13.15-21.99,3.42-29.54,30.48-13.89,79.87-7.89,86.33,30.77l1.35,82.91c-1.99,2.84-28.04,2.81-31.12.87-2.02-1.27-2.72-6.27-5.19-6.87s-11.16,5.6-14.87,6.82c-34.73,11.33-60.07-11.31-53.48-47.48,4.59-25.18,44.36-32.54,65.53-31.47ZM1906.01,240.53c-42.1-10.19-39.08,46.02-8.11,26.91,10.89-6.72,8.01-15.72,8.11-26.91Z"/>
  <path class="st1" d="M2214,248.54h-71c-5.09,0-1.62,8.21.97,11.03,13.92,15.15,42.55,7.18,59.99,5,3.38,22.95,12.55,25.62-13.86,31.07-39.82,8.22-83.97-3.5-88.07-50.13-8.44-96.02,131.83-93.86,111.97,3.03ZM2138,224.54h37c9.96,0,4.1-17.43-4.25-21.74-16.05-8.29-34.59,4.09-32.75,21.74Z"/>
  <path class="st1" d="M1752,134.54c4.7,10.96-1.04,20.73,0,32h-40l-1.98,126.58c-2.09,4.98-32.04,4.16-38.02,1.42v-125c0-.21-2.79-3-3-3h-39v-29c0-.21,2.79-3,3-3h119Z"/>
  <path class="st1" d="M1196,206.54c-2.96-2.91-22.05,9.69-15.94-22.94,2.02-10.78,14.66-5.8,15.96-7.05.64-.62.27-12.98,1.28-17.72,6.11-28.57,28.71-37.1,55.82-34.41,18.55,1.84,8.51,17.05,8.87,30.1-20.08-1.77-28.49.15-27.99,22.01,10.23.89,22.29-4.43,24.1,8.91,3.24,23.95-2.85,22-24.09,21.1v88c-12.24,3.12-25.79,3.12-38,0-2.39-10.82,3.14-84.91,0-88Z"/>
  <path class="st1" d="M2269.51,175.06c8.04-1.09,37.29.53,41.55,7.44,2.6,4.23-2.65,25.19-6.2,25.97-3.11.68-19.02-10.58-32.81-4.89-21.69,8.94,19.25,20.59,23.3,22.6,36.94,18.37,27.73,65.83-12.35,70.36-9.48,1.07-51.47,1.23-54.8-9.35-.65-2.07,3.62-21.13,4.76-22.68,3.89-5.29,20.06,4.14,26.95,5.14,8.97,1.31,24.09,1.02,19.8-11.8-2.24-6.69-37.12-11.42-46.14-29.89-13.08-26.78,10.54-49.48,35.94-52.9Z"/>
  <path class="st1" d="M932,144.54v32c4.34.27,24.96-1.51,26.08,3.33,1.39,27.27,1.86,28.68-26.09,26.66,3.63,23.99-13.56,67.47,26.02,60-1.13,7.12,3.19,25.52-4,29.02-4.43,2.16-30.42,1.5-36.15.13s-13.68-8.43-16.77-13.23c-11.92-18.53-4.31-73.25-7.08-75.92-2.09-2.01-12.64,5.17-14.11-6.89-4.01-32.99,10.33-19.48,14.11-23.09,1.01-.96-2.06-19.74,2.47-23.54,3.04-2.55,29.42-7.04,35.52-8.47Z"/>
  <path class="st1" d="M1200,500.54v-63c0-4.56-6.08-13.37-11.44-14.57-40.15-9.06-21.23,59.16-26.84,76.29-1.83,5.57-12.83,2.69-17.72,3.28v-93c0-3.15,9.65-3.79,12.73-2.74,5.62,1.93.86,11.99,6.24,9.72,1.97-.83,5.83-5.65,10.28-7.73,10.25-4.8,19.2-5.73,29.48.02,4.04,2.26,8.11,9.81,12.27,9.81,2.86,0,10.15-8.34,15.56-10.51,11.9-4.76,25.83-3.55,35.23,5.63,2.92,2.85,10.2,16.8,10.2,19.8v66c0,4.35-20,4.35-20,0v-66c0-4.19-8.63-10.17-13.12-10.88-36.91-5.88-17.54,55.03-23.28,74.48-2.44,8.25-13.68,5.26-19.6,3.4Z"/>
  <path class="st1" d="M1574,126.54v168h-35c-.21,0-3-2.79-3-3v-162c0-.21,2.79-3,3-3h35Z"/>
  <path class="st1" d="M652,424.54h57c.21,0,3-2.79,3-3v-48c0-4.28,18-4.28,18,0v126c0,3.33-15.78,5.64-17.72-.28s-.03-23.88-.29-31.7c-.11-3.42-1.9-6.7-2.08-10.12s4.33-14.91-.91-14.91h-57v55c0,6.53-20,6.53-20,0v-124c0-4.35,20-4.35,20,0v51Z"/>
  <rect class="st1" x="1474" y="126.54" width="36" height="168"/>
  <path class="st1" d="M1796,294.54c-1.96-.65-4.34,2-5,2h-30c-2.19,0-2.87-4.88-3.1-6.9-4.07-34.7,4.59-75.74-1.74-110.92,6.96-2.52,29.49-5.06,32.85,1.81,2.21,4.51-1.65,12.42,3.97,12.03,3.32-9.49,29.92-24.49,37.22-15.19,2.53,3.23,2.92,30.44.93,33.31-3.47,4.99-20.48-2.47-29.17,6.83-1.02,1.09-5.96,9.46-5.96,10.04v67Z"/>
  <path class="st1" d="M1032,499.54c-1.1,3.56-11.47,3.85-14.68,3.08-3.84-.92-1.22-12.21-6.29-10.06-7.01,2.97-9.63,9.98-22.59,11.51-58.72,6.94-59.99-101.1-1.44-99.69,11.22.27,15.82,5.98,25,10.16v-47c0-4.35,20-4.35,20,0v132ZM983.49,421c-31.15,5.38-28.39,72.92,9.36,67.47,27.77-4.01,31-74.44-9.36-67.47Z"/>
  <path class="st1" d="M1599.73,390.28c-3.25,2.03-49.83-15.94-49.84,13.26-.01,25.14,54.8,20.64,58.2,55.89,3.08,31.89-21.18,47.5-50.86,44.85-4.3-.38-22.64-4.56-25.26-6.71-4.81-3.96.09-11.88.04-17.03,16.07,5.15,54.47,15.13,56.15-10.92,1.55-24.07-21.55-23.77-37.53-32.71-38.74-21.67-18.05-68.68,24.36-68.54,6.27.02,28.98,4.07,29.02,11.09,0,1.15-3.79,10.52-4.28,10.83Z"/>
  <path class="st1" d="M1089.98,472.54c2.99-2.33,14.53-53.73,21.06-61.97,4.68-5.91,18.46-6.53,19.04.97-8.65,24.44-16.57,49.6-26.58,73.5-9.83,23.49-21.21,57.06-51.44,57.44.79-3.84-3.62-13.24-1.83-15.69.58-.8,12.67-5.85,16.84-10.17,3.12-3.23,10.63-14.83,10.72-19.03l-33.68-87.89c1.17-4.9,16.35-4.43,20.02-.27,6.68,7.59,16.28,46.17,21.78,58.22.9,1.98,1.33,4.69,4.07,4.9Z"/>
  <path class="st1" d="M2084,458.54h-61c-7.48,0,3.56,21.36,9.14,24.86,3.94,2.47,14.09,5.18,18.85,5.31,9.56.26,23.02-8.88,27.53.35,7.3,14.94-28.83,16.14-38.63,14.58-33.49-5.32-41.38-29.26-37.9-60.1,6.69-59.37,96.79-46.07,82.01,15.01ZM2066,444.54c.44-35.15-44.59-33.79-46,0h46Z"/>
  <path class="st1" d="M1642,458.54c-.61,18.14,11.09,29.27,29.1,30.06,8.08.36,19.95-5.72,25.61-3.86,3.99,1.31,4.55,11.07,3,13.52-1.22,1.93-22.7,6.23-26.66,6.37-81.82,3.02-56.59-126.1,11.43-95.57,18.98,8.52,28.02,49.48,18.52,49.48h-61ZM1688,444.54c-1.49-35.83-44.44-32.86-48,0h48Z"/>
  <path class="st1" d="M805.98,494.53c-4.53.18-6.96,3.92-11.39,5.59-51.29,19.36-67.42-49.11-11.37-57.37,5.27-.78,19.1,1.9,20.65-3.46.53-1.84-2.54-11.66-3.74-13.38-9.63-13.7-38.13,2.69-42.2-.21-1.47-1.05-3.89-8.03-3.53-9.92.95-5,19.98-10.09,25.12-10.73,24.43-3.01,41.97,9.7,44.46,34.5.8,7.97,1.41,54.64-.26,59.7-2.03,6.19-20.89,5.14-17.74-4.73ZM806.01,454.53c-13.15-.34-36.5-.01-38.08,17-1.77,19.21,15.15,23.42,29.07,13.01,9.43-7.05,8.15-19.1,9.01-30.01Z"/>
  <path class="st1" d="M926,499.54c-1.26,4.06-14.82,4.42-17.13,1.13-1.86-2.65-1.11-53.58-3.33-64.67-4.34-21.67-35.31-15.36-39.13,1.96s-.23,36.64-.24,53.58c0,19.33-20.18,9.78-20.18,8v-90c0-3.29,9.43-3.63,12.62-2.63,4.73,1.48,4.86,7.76,6.48,7.75,3.18-.02,15.16-8.68,22.43-9.69,8.09-1.12,21.31,2.04,27.5,7.55,1.82,1.62,10.98,15.89,10.98,17.02v70Z"/>
  <path class="st1" d="M1349.98,492.54c-3.93,2.53-6.76,5.79-11.2,7.78-45.16,20.3-73.25-47.32-9.57-57.58,5.98-.96,18.27,2.67,18.86-5.2,1.17-15.72-16.56-18.64-28.6-16.52-8.3,1.46-14.57,10.61-18.56-.42-3.44-9.5,4.5-10.79,13.05-13.12,27.26-7.41,50.95,1.54,54.02,32.07,1.11,11.08,1.86,48.12.03,57.98s-19.95,5.88-18.02-5ZM1350.01,454.53c-13.16-.33-36.5-.01-38.08,17-2.53,27.36,33.51,21.93,37.6,1.54,1.22-6.09.17-12.43.47-18.55Z"/>
  <path class="st1" d="M1390,409.54c1.13-3.64,9.19-3.71,12.62-2.63,4.73,1.48,4.86,7.76,6.48,7.75,9.98-.07,16.46-15.49,39.38-7.59,8.27,2.85,21.52,15.88,21.52,24.47v68c0,4.28-18,4.28-18,0v-56c0-14.25-10.81-22.94-24.86-20.88-31.34,4.59-12.46,57.18-17.54,74.48-2.5,8.51-19.6,5.99-19.6,2.4v-90Z"/>
  <path class="st1" d="M1820.02,472.53c3.74.72,4.97-1.7,6.42-4.56,6.61-13.09,13.2-48.01,20.59-57.41,5.39-6.84,21.79-6.7,18.59,4.48-7.81,11.46-28.84,82.44-35.6,86.51-9.12,5.49-16.4.43-20.38-7.65-7.57-15.36-24.37-59.47-28.23-75.77-.92-3.88-2.02-7.53-1.42-11.59,8.37.28,14.52-2.58,19.73,5.27,8.39,12.64,13.63,45.47,20.3,60.72Z"/>
  <path class="st1" d="M2151.81,424.35c-3.95,2.73-24.31-11.48-31.92,1.06-11.54,19.02,28.14,20.84,35.84,34.4,13.63,24.01-6.78,43.6-30.81,44.74-7.08.34-29.5-3.18-28.59-12.48,2.23-22.98,29.89,8.42,41.81-8.38,13.63-19.22-27.77-23.87-35.87-36.42-13.86-21.45,8.32-43.8,30.64-42.8,12.81.57,27.21,4.86,18.9,19.88Z"/>
  <path class="st1" d="M1989.84,484.71c.05,3.3,3.58,11.41,1.99,13.64-1.38,1.93-22.73,6.35-26.83,6.36-63.14.2-64.72-98.27.56-99.62,8.66-.18,27.64.59,25.64,11.52-2.48,13.56-19.51,4.08-32.07,6.06-32.19,5.09-29.59,65.62,7.85,65.89,7.13.05,15.12-5.67,22.87-3.85Z"/>
  <path class="st1" d="M1742,500.54c-1.27,2-18.9,4.37-19.6-3.4l-.12-87.32c1.4-4.27,10.71-4.27,14.46-3,5.63,1.92.85,11.96,6.24,9.71,3.26-6.32,23.47-16.85,28.14-10.1,4.76,24.91-5.72,14.12-16.23,20.01-3.78,2.12-12.89,15.15-12.89,19.1,0,7.71,1.47,52.68,0,55Z"/>
  <path class="st1" d="M1883.28,406.83c4.94-1.64,13.62-1.62,14.73,4.7,3.16,18.03,3.32,49.57,2.08,68.09-.41,6.18-.94,21.74-7.09,22.93-22.11,4.28-12.81-21.04-12.91-32.91-.11-12.89-2.59-25.13-2.06-38.09.2-4.85,1.93-23.63,5.25-24.73Z"/>
  <path class="st1" d="M1883.32,370.88c18.54-6.35,25.21,17.8,8.71,22.87-15.11,4.64-18.45-19.53-8.71-22.87Z"/>
</svg>